# xmcd
#
# Track frame offsets: 
#        150
#        22675
#        46705
#        65874
#        86931
#        101905
#        115325
#        133923
#        158752
#        178766
#        194884
#        215900
#        233324
#        250712
#
# Disc length: 3902 seconds
#
# Revision: 1
# Processed by: cddbd v1.5.2PL0 Copyright (c) Steve Scherf et al.
# Submitted via: ExactAudioCopy v0.95b4
#
DISCID=ca0f3c0e
DTITLE=Nickel Creek - Reasons Why (The Very Best)
DYEAR=2006
DGENRE=Country
TTITLE0=The Lighthouse's Tale
TTITLE1=Out Of The Woods
TTITLE2=When In Rome
TTITLE3=Helena
TTITLE4=Smoothie Song
TTITLE5=Somebody More Like You
TTITLE6=Reasons Why
TTITLE7=Can't Complain
TTITLE8=I Should've Known Better
TTITLE9=This Side
TTITLE10=Jealous Of The Moon
TTITLE11=When You Come Back Down
TTITLE12=You Don't Have To Move That Mountain [Live]
TTITLE13=The Fox [Live]
EXTD=
EXTT0=
EXTT1=
EXTT2=
EXTT3=
EXTT4=
EXTT5=
EXTT6=
EXTT7=
EXTT8=
EXTT9=
EXTT10=
EXTT11=
EXTT12=
EXTT13=
PLAYORDER=
